<?xml version="1.0" encoding="UTF-8"?>
<svg version="1.1" xmlns="http://www.w3.org/2000/svg" width="3811" height="3811">
<path d="M0 0 C4.77320925 0.00273019 9.54641566 -0.00046582 14.31962461 -0.00283685 C22.68547012 -0.00620324 31.05130909 -0.00591775 39.41715473 -0.0031533 C51.94114042 0.00096635 64.46512087 -0.0007477 76.98910669 -0.00353595 C98.34159989 -0.00812127 119.69409071 -0.00799312 141.04658413 -0.00525507 C162.67046444 -0.00249915 184.29434301 -0.00191905 205.91822338 -0.0039924 C206.60175326 -0.00405692 207.28528313 -0.00412143 207.98952603 -0.0041879 C214.25422105 -0.00477949 220.51891606 -0.0053934 226.78361106 -0.00603411 C242.48912952 -0.00763776 258.194648 -0.00889399 273.90016651 -0.00991448 C274.97938985 -0.00998483 274.97938985 -0.00998483 276.08041568 -0.01005661 C311.50048867 -0.01233244 346.92056138 -0.01080052 382.34063435 -0.00888666 C383.89118989 -0.00880302 385.44174544 -0.00871939 386.99230098 -0.00863576 C387.76076806 -0.00859431 388.52923514 -0.00855285 389.3209891 -0.00851014 C399.45585567 -0.00796358 409.59072223 -0.00742697 419.7255888 -0.00691685 C420.50035481 -0.00687768 421.27512082 -0.00683852 422.07336458 -0.00679818 C458.01290238 -0.00499514 493.95244005 -0.00542604 529.89197787 -0.0063473 C533.81536977 -0.0064471 537.73876167 -0.0065426 541.66215358 -0.00663858 C553.48837335 -0.00692918 565.31459312 -0.00722612 577.14081289 -0.00753618 C613.20174123 -0.0084806 649.26266956 -0.00908092 685.32359791 -0.00938448 C686.12644944 -0.00939135 686.92930097 -0.00939821 687.75648133 -0.00940529 C739.73351973 -0.00984388 791.71055797 -0.00874401 843.68759632 -0.0065349 C844.93182651 -0.00648222 844.93182651 -0.00648222 846.20119266 -0.00642848 C873.98306723 -0.0052522 901.7649418 -0.0039961 929.54681638 -0.00273185 C1013.55363049 0.0010884 1097.56044405 0.00318218 1247.58782939 -0.00284718 C1275.36276899 -0.00411044 1303.1377086 -0.00535898 1330.9126482 -0.0065349 C1331.74190334 -0.00657014 1332.57115847 -0.00660539 1333.42554255 -0.0066417 C1385.37591059 -0.00884778 1437.32627853 -0.00982892 1489.27664662 -0.00938448 C1490.48051918 -0.00937434 1490.48051918 -0.00937434 1491.7087124 -0.009364 C1527.7497803 -0.00905725 1563.79084819 -0.00841888 1599.83191607 -0.00747397 C1611.65284442 -0.00716444 1623.47377277 -0.0068701 1635.29470111 -0.00658093 C1639.21582773 -0.00648493 1643.13695435 -0.00638758 1647.05808097 -0.00628707 C1682.99693929 -0.00536864 1718.93579743 -0.00510029 1754.87465573 -0.00691685 C1756.0360646 -0.0069753 1756.0360646 -0.0069753 1757.22093627 -0.00703494 C1767.3499387 -0.00754669 1777.47894112 -0.00808934 1787.60794355 -0.00863576 C1788.37580022 -0.00867718 1789.1436569 -0.00871859 1789.93478196 -0.00876126 C1791.48392158 -0.00884482 1793.0330612 -0.00892845 1794.58220082 -0.00901216 C1829.95482666 -0.01091847 1865.32745216 -0.01222034 1900.70007801 -0.00991448 C1901.7778727 -0.00984445 1901.7778727 -0.00984445 1902.87744103 -0.009773 C1918.55761776 -0.00874258 1934.23779445 -0.00742287 1949.91797114 -0.0058192 C1956.17265447 -0.00518336 1962.42733781 -0.00458274 1968.68202114 -0.0039924 C1969.3642733 -0.00392699 1970.04652545 -0.00386157 1970.74945191 -0.00379417 C1993.00041099 -0.0016775 2015.25136812 -0.00290815 2037.5023271 -0.00576141 C2058.71935484 -0.00841065 2079.93637993 -0.00747092 2101.15340733 -0.00274732 C2113.58165748 -0.00008571 2126.00990037 -0.00012208 2138.43815017 -0.00422892 C2146.7086237 -0.00668581 2154.97909162 -0.00547031 2163.24956448 -0.00136206 C2167.92711297 0.00086169 2172.60464708 0.00162105 2177.28219488 -0.00217858 C2205.46776232 -0.02346313 2233.68926104 0.09180857 2261.80012226 2.37740866 C2262.59209004 2.44021017 2263.38405781 2.50301169 2264.20002461 2.56771628 C2343.06509847 8.88946503 2420.80910076 26.6941388 2588.80012226 101.12740866 C2589.85699238 101.72392233 2590.9138625 102.320436 2592.00275898 102.93502585 C2612.24374691 114.38978862 2631.6100964 126.99801779 2650.80012226 140.12740866 C2651.71277851 140.75018698 2652.62543476 141.3729653 2653.56574726 142.01461569 C2670.68901984 153.74788462 2687.08587063 166.5247787 2703.09553242 179.72701803 C2704.67042798 181.02085947 2706.25629289 182.30131772 2707.84309101 183.58053366 C2713.49300334 188.13871399 2718.91378806 192.88549765 2724.25715351 197.79928366 C2726.37079281 199.73435128 2728.50672075 201.62949162 2730.67512226 203.50240866 C2742.01458236 213.39431036 2752.727733 223.89542941 2763.34992695 234.54684225 C2765.68895707 236.89127542 2768.03334424 239.23025737 2770.37824726 241.56881491 C2771.89158913 243.082817 2773.40462107 244.59712896 2774.91730976 246.11178366 C2775.60598133 246.798431 2776.2946529 247.48507834 2777.00419331 248.19253317 C2780.92485253 252.1319676 2784.67033664 256.17316359 2788.29652119 260.38569418 C2790.36931007 262.78673424 2792.52287405 265.11011808 2794.67512226 267.43990866 C2798.76769662 271.92754298 2802.65283061 276.53671094 2806.46418476 281.26412741 C2808.51783838 283.78139848 2810.61567961 286.25285314 2812.73615742 288.71383444 C2818.43164275 295.33870013 2823.70981634 302.21539851 2828.90559101 309.23678366 C2831.44116357 312.66210408 2834.04713637 316.02253304 2836.67512226 319.37740866 C2860.68624021 350.36545201 2881.50675072 384.48543415 2899.80012226 419.12740866 C2900.29318867 420.0532778 2900.78625508 420.97914694 2901.29426289 421.93307272 C2939.33207042 493.39434528 2965.50493228 570.18608665 2986.48762226 690.31490866 C2986.5844933 691.02418509 2986.68136433 691.73346152 2986.78117085 692.46423117 C2991.02661695 723.8979073 2992.25778088 755.45148767 2992.18234824 787.13151041 C2992.17412014 792.04609384 2992.18375825 796.96065339 2992.19085878 801.87523422 C2992.20093477 810.47947167 2992.20011834 819.08365184 2992.19180815 827.68789039 C2992.17942419 840.56874175 2992.1846019 853.44954751 2992.19295608 866.33040003 C2992.2066969 888.29389826 2992.2063556 910.25737865 2992.19811344 932.22087828 C2992.18981379 954.45782484 2992.1881097 976.69475776 2992.19432545 998.93170515 C2992.19451899 999.63509425 2992.19471253 1000.33848335 2992.19491194 1001.06318727 C2992.19668675 1007.51007359 2992.19852849 1013.95695989 2992.20045057 1020.40384617 C2992.20526104 1036.56489177 2992.20902993 1052.72593753 2992.21209169 1068.88698355 C2992.21223239 1069.62726912 2992.2123731 1070.36755469 2992.21251806 1071.13027316 C2992.21934273 1107.55918471 2992.21475103 1143.98809382 2992.20900822 1180.41700522 C2992.20875731 1182.01138178 2992.20850641 1183.60575833 2992.20825553 1185.20013489 C2992.20806898 1186.38541587 2992.20806898 1186.38541587 2992.20787866 1187.59464192 C2992.20623895 1198.01623857 2992.20462911 1208.43783523 2992.20309878 1218.8594319 C2992.20298129 1219.65614041 2992.20286381 1220.45284891 2992.20274277 1221.2737001 C2992.1973317 1258.24472233 2992.19862706 1295.21574335 2992.20139015 1332.18676576 C2992.20168954 1336.22376261 2992.20197603 1340.26075946 2992.20226397 1344.29775631 C2992.20313579 1356.46665586 2992.20402662 1368.63555542 2992.20495677 1380.80445497 C2992.20778993 1417.90946385 2992.20959096 1455.01447274 2992.21050167 1492.11948172 C2992.21052228 1492.94555058 2992.21054288 1493.77161943 2992.21056411 1494.62272068 C2992.21187973 1548.09618488 2992.2085811 1601.5696477 2992.20195294 1655.04311148 C2992.20184758 1655.89637175 2992.20174223 1656.74963203 2992.20163368 1657.62874868 C2992.19810494 1686.20615739 2992.19433659 1714.78356607 2992.19054379 1743.36097475 C2992.17908323 1829.77092427 2992.17280174 1916.1808689 2992.19088978 2070.50078679 C2992.1946796 2099.07109313 2992.19842527 2127.64139947 2992.20195294 2156.21170584 C2992.20205867 2157.06472851 2992.20216441 2157.91775118 2992.20227334 2158.79662303 C2992.20889243 2212.24286073 2992.21183483 2265.68909749 2992.21050167 2319.1353356 C2992.21047127 2320.37402056 2992.21047127 2320.37402056 2992.21044025 2321.63772945 C2992.20951996 2358.72236419 2992.20760478 2395.80699883 2992.20477017 2432.89163346 C2992.20384158 2445.05505984 2992.20295857 2457.21848622 2992.20209102 2469.3819126 C2992.20180304 2473.41657769 2992.20151098 2477.45124277 2992.20120944 2481.48590785 C2992.19845486 2518.45573432 2992.19764719 2555.42555916 2992.20309878 2592.39538542 C2992.20321569 2593.19158568 2992.20333261 2593.98778594 2992.20345307 2594.80811348 C2992.20498828 2605.22363647 2992.20661624 2615.63915945 2992.20825553 2626.05468243 C2992.20837977 2626.84424058 2992.20850401 2627.63379873 2992.20863202 2628.44728289 C2992.2088827 2630.04020057 2992.2091336 2631.63311825 2992.20938471 2633.22603593 C2992.21510498 2669.60663615 2992.21900645 2705.98723345 2992.21209169 2742.36783377 C2992.21195162 2743.10713747 2992.21181156 2743.84644118 2992.21166725 2744.60814802 C2992.20857569 2760.74325912 2992.20461638 2776.87836988 2992.19980584 2793.01348055 C2992.19789838 2799.4500244 2992.1960965 2805.88656828 2992.19432545 2812.32311217 C2992.19403108 2813.37623192 2992.19403108 2813.37623192 2992.19373076 2814.45062682 C2992.18757281 2836.65553834 2992.19054301 2858.86043576 2992.19887576 2881.06534622 C2992.20727798 2903.56764926 2992.20518459 2926.06992994 2992.1905902 2948.57223052 C2992.18261742 2961.35082549 2992.18269311 2974.1293569 2992.195035 2986.90794876 C2992.2024237 2995.41927215 2992.19873149 3003.93054657 2992.18643443 3012.4418641 C2992.17978415 3017.2506778 2992.17743383 3022.059366 2992.18888399 3026.86817357 C2992.25861654 3058.33601828 2990.76216003 3089.67124072 2986.48762226 3120.87740866 C2986.38340962 3121.6602825 2986.27919697 3122.44315634 2986.17182637 3123.24975363 C2976.68624157 3194.44198208 2958.18638371 3264.09322024 2929.80012226 3330.12740866 C2929.28659199 3331.32655905 2928.77306172 3332.52570944 2928.24396992 3333.76119772 C2916.06731857 3361.99813458 2902.39320423 3389.61870063 2886.80012226 3416.12740866 C2885.96311787 3417.567936 2885.96311787 3417.567936 2885.1092043 3419.03756491 C2877.62808415 3431.8994739 2869.74227441 3444.44000824 2861.48762226 3456.81490866 C2861.07736805 3457.43044607 2860.66711384 3458.04598349 2860.24442768 3458.68017355 C2852.42824826 3470.38178681 2844.33476857 3481.8899097 2835.86262226 3493.12740866 C2835.36593037 3493.78765036 2834.86923847 3494.44789206 2834.35749531 3495.12814108 C2820.39004293 3513.62976249 2805.72050439 3531.58575433 2790.04230976 3548.66647116 C2788.02984119 3550.87527813 2786.06354211 3553.11434164 2784.11262226 3555.37740866 C2781.41693702 3558.48344412 2778.57302361 3561.3793672 2775.63752461 3564.25753561 C2773.88581806 3566.04019844 2772.26055029 3567.87799343 2770.63996601 3569.77975241 C2766.57700817 3574.45091817 2762.24986441 3578.8248804 2757.86262226 3583.18990866 C2757.10271992 3583.95367819 2756.34281758 3584.71744772 2755.55988789 3585.50436178 C2751.41611857 3589.64105379 2747.18648071 3593.60345551 2742.74958515 3597.42306296 C2739.40212159 3600.34963066 2736.20822085 3603.43785683 2732.98762226 3606.50240866 C2727.69537589 3611.50081104 2722.33044103 3616.29020961 2716.63215351 3620.82662741 C2713.15209986 3623.653871 2709.79485858 3626.60793206 2706.42512226 3629.56490866 C2700.3752705 3634.84404974 2694.1674858 3639.83101452 2687.74543476 3644.65475241 C2685.48042127 3646.3694313 2683.23400054 3648.10713996 2680.98762226 3649.84615866 C2670.20902513 3658.1674851 2659.26793511 3666.12931649 2647.94465351 3673.69283835 C2645.9628972 3675.01852142 2643.98957129 3676.35567931 2642.01887226 3677.69772116 C2571.13043915 3725.77490277 2492.16408129 3761.16705611 2275.02668476 3808.14693991 C2274.21543141 3808.23206839 2273.40417805 3808.31719687 2272.56834126 3808.404905 C2259.3881659 3809.73499014 2246.30316952 3810.2749309 2233.06418878 3810.25505916 C2231.41778746 3810.25630486 2229.77138643 3810.25798738 2228.12498595 3810.26006152 C2223.61585306 3810.26448563 2219.10674087 3810.26274313 2214.59760746 3810.25995973 C2209.66797648 3810.25802938 2204.73834939 3810.26192458 2199.80871949 3810.26505653 C2191.1406074 3810.26976237 2182.47250101 3810.27075681 2173.80438785 3810.26932818 C2160.82757187 3810.26720516 2147.85076178 3810.27082306 2134.87394671 3810.27554296 C2112.75640746 3810.28341361 2090.63886936 3810.28651283 2068.52132893 3810.28698889 C2046.10498889 3810.28748366 2023.68865065 3810.29013153 2001.27231121 3810.29539648 C1999.84247739 3810.29573002 1998.41264358 3810.29606349 1996.98280976 3810.29639689 C1991.21756717 3810.29774503 1985.45232459 3810.29910833 1979.68708201 3810.30048899 C1916.29229582 3810.31564928 1852.89751009 3810.32243092 1789.50272239 3810.32691096 C1788.30014436 3810.32699599 1788.30014436 3810.32699599 1787.07327183 3810.32708274 C1783.01792459 3810.32736927 1778.96257735 3810.3276543 1774.90723011 3810.32793686 C1740.91597702 3810.33031297 1706.92472412 3810.33402286 1672.93347119 3810.33797396 C1656.64973853 3810.33986659 1640.36600586 3810.3416951 1624.08227319 3810.34350816 C1622.86743442 3810.34364344 1622.86743442 3810.34364344 1621.62805346 3810.34378146 C1582.64953477 3810.34811761 1543.67101604 3810.35204596 1504.69249726 3810.35550848 C1503.86103266 3810.35558235 1503.02956807 3810.35565623 1502.17290758 3810.35573234 C1449.18853188 3810.36042691 1396.20415623 3810.36325017 1343.21978035 3810.36489526 C1338.87618736 3810.36503084 1334.53259437 3810.36516987 1330.18900138 3810.3653088 C1323.22526731 3810.36553127 1316.26153323 3810.36575264 1309.29779915 3810.36597268 C1308.43488209 3810.36599995 1307.57196502 3810.36602722 1306.68289895 3810.36605532 C1304.93888004 3810.36611043 1303.19486112 3810.36616554 1301.45084221 3810.36622065 C1289.21723362 3810.36660726 1276.98362503 3810.36699521 1264.75001644 3810.36738978 C1260.37260633 3810.36753089 1255.99519622 3810.36767096 1251.6177861 3810.36780868 C1168.95950856 3810.37041237 1086.3012329 3810.37573885 1003.64295674 3810.39169089 C1002.77302826 3810.39185868 1001.90309978 3810.39202647 1001.00680984 3810.39219935 C973.82666719 3810.39745 946.6465246 3810.40302437 919.46638203 3810.40865866 C891.57688525 3810.41443984 863.68738847 3810.42017049 835.79789162 3810.42561499 C834.93910956 3810.4257828 834.0803275 3810.4259506 833.19552173 3810.4261235 C779.39048234 3810.43662064 725.58544347 3810.4434794 671.78040314 3810.44648138 C670.94907336 3810.44652819 670.11774359 3810.44657501 669.261222 3810.44662324 C632.74669868 3810.44867414 596.23217538 3810.44991802 559.71765201 3810.45026929 C545.02655112 3810.45041255 530.33545023 3810.45065121 515.64434934 3810.45093335 C513.20856921 3810.45097888 510.77278907 3810.45102053 508.33700894 3810.45106146 C471.10580468 3810.4517071 433.87460256 3810.45465572 396.64339948 3810.46452204 C395.4402341 3810.4648406 395.4402341 3810.4648406 394.21276234 3810.46516559 C381.31099359 3810.46859409 368.4092249 3810.47220714 355.5074562 3810.47584199 C318.85534133 3810.48616306 282.20322911 3810.49493426 245.55111254 3810.49299732 C244.80641385 3810.49295859 244.06171516 3810.49291985 243.29444985 3810.49287993 C227.04206506 3810.49200309 210.78968047 3810.49029048 194.53729586 3810.48776031 C188.05398246 3810.48676365 181.57066904 3810.48587696 175.08735562 3810.48502508 C174.38016353 3810.4849292 173.67297144 3810.48483331 172.94434929 3810.48473452 C150.56859967 3810.48175274 128.19286541 3810.48795453 105.81711894 3810.49954395 C83.14571744 3810.51124674 60.47433387 3810.51248936 37.8029308 3810.50122827 C24.92436722 3810.49515044 12.04586827 3810.49717676 -0.83268917 3810.51148024 C-9.40661503 3810.52017332 -17.98049375 3810.51780481 -26.55441677 3810.50678153 C-31.40135712 3810.50084972 -36.2481716 3810.49927764 -41.09510315 3810.51146639 C-71.27856933 3810.58245091 -101.14535931 3808.99475233 -131.07487774 3804.87740866 C-131.83374279 3804.77547201 -132.59260784 3804.67353537 -133.3744688 3804.56850973 C-210.95731959 3794.09326341 -287.23290213 3772.23556419 -358.19987774 3739.12740866 C-359.34939922 3738.59180319 -360.4989207 3738.05619772 -361.68327617 3737.50436178 C-390.49103816 3724.00244654 -418.21093853 3708.96728015 -445.19987774 3692.12740866 C-446.12429668 3691.55474264 -447.04871563 3690.98207663 -448.00114727 3690.3920571 C-469.88991867 3676.8319161 -490.92085972 3661.99246131 -511.19987774 3646.12740866 C-512.3507124 3645.2352145 -513.50176006 3644.34329502 -514.65300274 3643.45162741 C-522.10620046 3637.66006888 -529.38107822 3631.69208457 -536.54362774 3625.54537741 C-538.24673352 3624.08729392 -539.95697047 3622.63794014 -541.66862774 3621.18990866 C-549.03943254 3614.93830614 -556.21301303 3608.51672619 -563.27043438 3601.91329733 C-564.76607175 3600.52893856 -566.27265702 3599.15640301 -567.78361797 3597.78878561 C-575.13933116 3591.1169852 -582.24724999 3584.23589129 -589.25627422 3577.20138327 C-591.02474993 3575.42749863 -592.79857817 3573.65909089 -594.57292461 3571.89108053 C-599.79372027 3566.67333952 -604.94813772 3561.45534899 -609.7386961 3555.83370749 C-612.09693866 3553.07986333 -614.59499468 3550.45875438 -617.07487774 3547.81490866 C-621.53367254 3543.02225951 -625.76108565 3538.10551038 -629.86003399 3532.99850241 C-632.05822146 3530.3012273 -634.30999136 3527.66475323 -636.58977031 3525.03683249 C-642.21993896 3518.54512992 -647.60091506 3511.9087674 -652.76286602 3505.03707663 C-654.3895162 3502.87539506 -656.02724797 3500.72230833 -657.66472149 3498.56881491 C-682.92437848 3465.24390969 -705.66631387 3430.1114938 -725.19987774 3393.12740866 C-725.68762676 3392.21217428 -726.17537578 3391.29693991 -726.67790508 3390.35397116 C-768.87830028 3311.13736971 -797.45951128 3224.72512198 -814.44987774 3101.93990866 C-814.52719127 3101.25601065 -814.60450481 3100.57211264 -814.68416118 3099.86749045 C-818.04695969 3069.64629202 -818.50351255 3039.19827497 -818.45469505 3008.82507925 C-818.4492158 3003.9783972 -818.45563302 2999.13172602 -818.46036875 2994.28504515 C-818.46708985 2985.79742545 -818.46653903 2977.30983155 -818.46100166 2968.82221135 C-818.45274979 2956.11594761 -818.45619577 2943.40970443 -818.46176695 2930.70344018 C-818.47092996 2909.03828677 -818.47069874 2887.37314265 -818.46520519 2865.70798842 C-818.45967297 2843.77175488 -818.45853532 2821.83552749 -818.46267986 2799.89929358 C-818.46280889 2799.20553306 -818.46293792 2798.51177254 -818.46307085 2797.79698897 C-818.46425406 2791.43839838 -818.46548188 2785.07980779 -818.46676328 2778.72121721 C-818.46997033 2762.78123957 -818.47248289 2746.84126185 -818.47452402 2730.90128401 C-818.47461782 2730.17111009 -818.47471162 2729.44093617 -818.47480827 2728.68863576 C-818.4793585 2692.75370544 -818.47629672 2656.81877621 -818.47246837 2620.88384596 C-818.4723011 2619.31101189 -818.47213384 2617.73817781 -818.47196658 2616.16534374 C-818.47188367 2615.38583379 -818.47180076 2614.60632384 -818.47171534 2613.80319238 C-818.4706222 2603.52249811 -818.46954897 2593.24180383 -818.46852874 2582.96110955 C-818.46845042 2582.17517954 -818.4683721 2581.38924952 -818.46829141 2580.57950344 C-818.46468438 2544.11223247 -818.46554748 2507.64496204 -818.46738966 2471.17769099 C-818.46758925 2467.19596794 -818.46778025 2463.2142449 -818.46797221 2459.23252185 C-818.46855342 2447.23031169 -818.4691473 2435.22810153 -818.46976741 2423.22589137 C-818.4716562 2386.62902554 -818.47285687 2350.0321597 -818.47346401 2313.43529383 C-818.47348461 2312.21315136 -818.47348461 2312.21315136 -818.47350564 2310.96631914 C-818.47438274 2258.22333842 -818.4721835 2205.48035832 -818.46776485 2152.7373778 C-818.46769462 2151.89574874 -818.46762438 2151.05411969 -818.46755201 2150.18698672 C-818.4651995 2121.99893001 -818.46268728 2093.81087332 -818.46015875 2065.62281662 C-818.45251821 1980.38796904 -818.44833086 1895.15312366 -818.46038942 1742.93031074 C-818.46291595 1714.74803915 -818.46541305 1686.56576756 -818.46776485 1658.38349596 C-818.46783534 1657.54206632 -818.46790583 1656.70063668 -818.46797846 1655.83370917 C-818.47239094 1603.11671615 -818.47435282 1550.39972355 -818.47346401 1497.68273035 C-818.4734505 1496.86825018 -818.47343698 1496.05377 -818.47342306 1495.21460861 C-818.47280954 1458.63848066 -818.47153278 1422.06235275 -818.469643 1385.48622485 C-818.46902394 1373.48970206 -818.46843527 1361.49317928 -818.46785691 1349.4966565 C-818.46766492 1345.5173305 -818.46747021 1341.5380045 -818.46726919 1337.5586785 C-818.46543262 1301.09224614 -818.46489486 1264.62581452 -818.46852874 1228.15938226 C-818.46860669 1227.37391429 -818.46868463 1226.58844631 -818.46876494 1225.77917628 C-818.46978842 1215.50392723 -818.47087373 1205.22867819 -818.47196658 1194.95342916 C-818.47204941 1194.17449796 -818.47213224 1193.39556677 -818.47221757 1192.5930316 C-818.47238469 1191.02155215 -818.47255196 1189.4500727 -818.47271937 1187.87859325 C-818.4765325 1151.99113179 -818.47913464 1116.10367166 -818.47452402 1080.21621016 C-818.47443064 1079.48705084 -818.47433727 1078.75789152 -818.47424106 1078.00663647 C-818.4721801 1062.09358937 -818.46954061 1046.18054242 -818.46633345 1030.26749551 C-818.4650618 1023.91970458 -818.46386055 1017.57191363 -818.46267986 1011.22412268 C-818.46254903 1010.53172021 -818.4624182 1009.83931774 -818.4622834 1009.12593338 C-818.45817688 987.22050404 -818.46015963 965.31508105 -818.4657134 943.40965219 C-818.47131258 921.21441906 -818.46992353 899.01919718 -818.4601897 876.8239653 C-818.45487121 864.21716213 -818.45493083 851.6103876 -818.46315289 839.00358582 C-818.46807374 830.60982652 -818.4656248 822.21608931 -818.45741918 813.82233266 C-818.45297992 809.07794126 -818.45143289 804.33360645 -818.45905222 799.58921778 C-818.50386744 769.60018498 -817.67944006 739.65424502 -814.44987774 709.81490866 C-814.32582561 708.63952536 -814.32582561 708.63952536 -814.19926738 707.44039694 C-804.6132688 617.26860959 -779.60625367 529.39198144 -734.20378399 436.12057272 C-733.10710337 433.94321364 -732.04249975 431.75187488 -730.98112774 429.55709616 C-724.87344714 416.99625509 -718.03764891 404.95567665 -710.88444805 392.96285788 C-709.37621809 390.42422269 -707.88908377 387.87496524 -706.41081524 385.31881491 C-680.64819178 341.11032105 -649.41120647 299.34081558 -614.66081524 261.80709616 C-612.56883919 259.52916669 -610.5286034 257.22206927 -608.51237774 254.87740866 C-605.54713646 251.45216575 -602.37583062 248.28544226 -599.14909649 245.10787741 C-597.34738498 243.27728075 -595.67413876 241.39709387 -594.01237774 239.43990866 C-586.99627173 231.29736362 -579.21396205 223.68653685 -571.02409649 216.73287741 C-568.99182267 214.94430238 -567.09929878 213.05622113 -565.19987774 211.12740866 C-562.02871744 207.91306135 -558.74405021 204.90989903 -555.32097149 201.96725241 C-552.97496715 199.93232047 -550.68251323 197.84449899 -548.38737774 195.75240866 C-544.14546924 191.92826387 -539.79436677 188.2785141 -535.35222149 184.68990866 C-533.01127893 182.79719953 -530.69738562 180.87490691 -528.39128399 178.93990866 C-518.71111791 170.8398029 -508.76706872 163.21394751 -498.53776836 155.82125632 C-496.29744781 154.19810009 -494.06769021 152.56148948 -491.84050274 150.92037741 C-456.62040173 125.06918989 -419.04693719 102.62043032 -380.01762676 83.03951803 C-378.22479072 82.13990948 -376.43351371 81.2371961 -374.64226055 80.33443991 C-302.56544267 44.18630982 -224.0940794 20.8242354 -88.19987774 2.43990866 C-87.4332481 2.37897024 -86.66661846 2.31803183 -85.87675762 2.25524679 C-57.30773749 0.02225973 -28.63731346 -0.02326244 0 0 Z M-344.03972149 499.12350241 C-345.12377451 500.35598324 -346.1963902 501.59860045 -347.25847149 502.85006491 C-348.81219728 504.67264467 -350.38817726 506.46415405 -351.98503399 508.24850241 C-361.0269389 518.41466534 -369.18079487 529.14393595 -377.19987774 540.12740866 C-377.73499981 540.85186178 -378.27012188 541.57631491 -378.82145977 542.32272116 C-387.49699177 554.08466109 -394.99856566 566.41695431 -402.19987774 579.12740866 C-402.7482127 580.09098288 -403.29654766 581.0545571 -403.86149883 582.04733053 C-444.76758034 654.3688021 -458.38900367 732.91140793 -458.3298576 814.88671337 C-458.32753586 819.66158155 -458.33107122 824.43644624 -458.33382442 829.2113137 C-458.33786344 837.59876507 -458.33821066 845.98621025 -458.33611848 854.37366224 C-458.33300358 866.93018001 -458.33566228 879.48669211 -458.33941719 892.04320947 C-458.34564631 913.44644223 -458.34712398 934.84967295 -458.34599971 956.25290648 C-458.3448749 977.93987944 -458.34590325 999.62685068 -458.34957218 1021.31382338 C-458.34980417 1022.69800045 -458.35003614 1024.08217752 -458.3502681 1025.46635459 C-458.35120767 1031.04764187 -458.35216397 1036.62892914 -458.35313929 1042.21021641 C-458.35588428 1057.94171231 -458.35826381 1073.67320825 -458.36039126 1089.40470425 C-458.36048881 1090.12551533 -458.36058636 1090.8463264 -458.36068686 1091.58898024 C-458.36618914 1132.56069589 -458.36649638 1173.53241163 -458.36690772 1214.50412758 C-458.36697097 1220.76616209 -458.3670375 1227.0281966 -458.36710827 1233.29023111 C-458.36712597 1234.85982002 -458.36714334 1236.42940894 -458.3671604 1237.99899785 C-458.36754837 1273.24268157 -458.36972765 1308.4863651 -458.37229065 1343.73004872 C-458.37286221 1351.5986115 -458.37341619 1359.46717427 -458.37397128 1367.33573704 C-458.37402641 1368.11681072 -458.37408153 1368.8978844 -458.37413832 1369.70262698 C-458.37447282 1374.44395177 -458.37480659 1379.18527657 -458.37513988 1383.92660136 C-458.37530696 1386.30179857 -458.37547447 1388.67699577 -458.37564202 1391.05219297 C-458.3782438 1427.98114084 -458.38047413 1464.91008871 -458.38232422 1501.83903662 C-458.38236459 1502.64364037 -458.38240496 1503.44824413 -458.38244655 1504.27722982 C-458.38500934 1555.54285893 -458.38590909 1606.80848792 -458.38564622 1658.07411709 C-458.38563346 1660.59463431 -458.3856215 1663.11515153 -458.38560981 1665.63566875 C-458.38552747 1683.34279975 -458.38542476 1701.04993075 -458.38531693 1718.75706174 C-458.38528616 1723.83393863 -458.38525609 1728.91081552 -458.38522611 1733.98769241 C-458.38520102 1738.2224671 -458.38517523 1742.45724178 -458.385148 1746.69201647 C-458.38463664 1826.66728685 -458.38605317 1906.64255623 -458.39549541 1986.61782614 C-458.39559477 1987.45969308 -458.39569413 1988.30156001 -458.3957965 1989.16893807 C-458.39890786 2015.47296605 -458.40227435 2041.776994 -458.40568828 2068.08102194 C-458.40918982 2095.07187556 -458.41266034 2122.06272918 -458.41595268 2149.05358282 C-458.41605421 2149.88469214 -458.41615573 2150.71580146 -458.41626033 2151.5720959 C-458.42261157 2203.63948493 -458.42653176 2255.70687366 -458.42781067 2307.77426306 C-458.42783069 2308.5786794 -458.42785072 2309.38309574 -458.42787136 2310.21188833 C-458.42874677 2345.54327657 -458.42906642 2380.8746648 -458.42878047 2416.20605306 C-458.42866619 2430.42072952 -458.42861012 2444.63540599 -458.42857715 2458.85008245 C-458.42857075 2461.20686159 -458.42856167 2463.56364073 -458.428552 2465.92041988 C-458.42841559 2501.94662935 -458.42975635 2537.97283791 -458.43559718 2573.99904696 C-458.43572285 2574.77527825 -458.43584852 2575.55150954 -458.435978 2576.35126299 C-458.43800686 2588.83680458 -458.44015093 2601.32234615 -458.44230481 2613.80788772 C-458.44841783 2649.27267049 -458.45345522 2684.73745201 -458.45133364 2720.20223538 C-458.45129093 2720.92265532 -458.45124821 2721.64307527 -458.45120421 2722.38532612 C-458.45025059 2738.1069525 -458.44873447 2753.82857876 -458.44666749 2769.55020503 C-458.44585123 2775.82153041 -458.44510758 2782.0928558 -458.44438648 2788.3641812 C-458.44430583 2789.04825202 -458.44422518 2789.73232283 -458.44414208 2790.43712307 C-458.44154693 2812.74784553 -458.44567175 2835.05856015 -458.45305767 2857.36928141 C-458.45995964 2878.64355165 -458.45969148 2899.9178119 -458.45186553 2921.19208193 C-458.4474936 2933.65421712 -458.44853309 2946.11632281 -458.45773231 2958.57845554 C-458.46330219 2966.87148086 -458.46152129 2975.16448433 -458.45394953 2983.45750799 C-458.44986724 2988.14792723 -458.44871916 2992.83828874 -458.45670022 2997.5287043 C-458.54439093 3052.86216244 -453.28535535 3106.52265203 -435.19987774 3159.12740866 C-434.81605938 3160.25259909 -434.43224102 3161.37778952 -434.0367918 3162.53707663 C-415.83276153 3215.29238665 -386.97557012 3263.29490054 -350.19987774 3305.12740866 C-349.40968242 3306.03104147 -348.61948711 3306.93467428 -347.80534649 3307.86568991 C-341.82529867 3314.54131679 -335.5371166 3320.91757167 -329.22517681 3327.27734152 C-328.22556803 3328.28499021 -327.22744419 3329.29411467 -326.23097515 3330.30486838 C-319.57135397 3337.04975567 -312.61447338 3343.21056733 -305.19987774 3349.12740866 C-304.11002414 3350.05075684 -303.02539448 3350.98036866 -301.94987774 3351.92037741 C-241.80295303 3404.29262861 -163.81116026 3436.45721206 -85.26237774 3447.37740866 C-83.66112041 3447.60424338 -83.66112041 3447.60424338 -82.02751445 3447.83566061 C-56.15731123 3451.16968258 -30.18033743 3451.42430729 -4.14652002 3451.38222598 C0.64078177 3451.37677441 5.42807214 3451.38315463 10.21537271 3451.38789967 C18.60917396 3451.39463798 27.00294915 3451.3940575 35.39675092 3451.38853258 C47.96259927 3451.38029915 60.52842676 3451.38371887 73.09427562 3451.38929787 C94.51727308 3451.39847211 115.94026102 3451.39821044 137.36325932 3451.39273611 C159.06054543 3451.38722554 180.75782504 3451.38606307 202.45511151 3451.39021078 C203.14079598 3451.39033981 203.82648046 3451.39046884 204.53294325 3451.39060178 C210.81732677 3451.39178494 217.10171028 3451.39301276 223.38609378 3451.3942942 C239.14141883 3451.39750163 254.89674396 3451.40001402 270.65206921 3451.40205494 C271.73474997 3451.40219565 271.73474997 3451.40219565 272.83930306 3451.40233919 C308.37823942 3451.40689154 343.91717467 3451.4038267 379.45611096 3451.3999993 C381.01199344 3451.39983202 382.56787593 3451.39966476 384.12375842 3451.39949751 C384.89486499 3451.39941459 385.66597157 3451.39933168 386.46044501 3451.39924626 C396.63004205 3451.39815315 406.79963909 3451.39707993 416.96923614 3451.39605967 C417.74665028 3451.39598135 418.52406443 3451.39590302 419.32503658 3451.39582233 C455.38298568 3451.3922167 491.44093424 3451.39307792 527.49888343 3451.39492058 C531.43488075 3451.39512017 535.37087807 3451.39531117 539.30687539 3451.39550313 C551.1710243 3451.39608433 563.0351732 3451.39667822 574.8993221 3451.39729833 C611.07627267 3451.39918721 647.25322325 3451.40038782 683.43017388 3451.40099493 C684.63834196 3451.40101554 684.63834196 3451.40101554 685.87091748 3451.40103656 C738.01834716 3451.40191379 790.16577623 3451.39971379 842.31320572 3451.39529577 C843.14545005 3451.39522554 843.97769437 3451.3951553 844.83515822 3451.39508294 C872.70960529 3451.39273037 900.58405234 3451.39021817 928.4584994 3451.38768968 C1012.74445748 3451.38004927 1097.03041333 3451.37586145 1247.55434472 3451.38792034 C1275.42059489 3451.39044684 1303.28684506 3451.39294393 1331.15309525 3451.39529577 C1332.40106006 3451.39540151 1332.40106006 3451.39540151 1333.67423628 3451.39550938 C1385.79391677 3451.39992144 1437.91359683 3451.40188383 1490.03327751 3451.40099493 C1490.83845935 3451.40098142 1491.64364119 3451.40096791 1492.47322248 3451.40095399 C1528.63085548 3451.40034048 1564.78848844 3451.39906375 1600.9461214 3451.39717393 C1612.80526778 3451.39655486 1624.66441416 3451.39596618 1636.52356054 3451.39538783 C1640.45738303 3451.39519584 1644.39120551 3451.39500114 1648.325028 3451.39480011 C1684.38224657 3451.39296315 1720.4394644 3451.39242683 1756.49668289 3451.39605967 C1757.27356308 3451.39613761 1758.05044328 3451.39621556 1758.85086531 3451.39629586 C1769.01405744 3451.39731937 1779.17724956 3451.39840467 1789.34044168 3451.39949751 C1790.49612127 3451.39962175 1790.49612127 3451.39962175 1791.67514791 3451.39974849 C1793.22952679 3451.39991562 1794.78390567 3451.40008288 1796.33828454 3451.40025029 C1831.82914085 3451.40406277 1867.31999583 3451.406667 1902.81085217 3451.40205494 C1903.53173112 3451.40196157 1904.25261007 3451.40186819 1904.99533384 3451.40177199 C1920.72650416 3451.39971118 1936.45767434 3451.39707176 1952.18884447 3451.39386438 C1958.46380695 3451.39259269 1964.73876945 3451.39139146 1971.01373196 3451.39021078 C1972.0404312 3451.39001454 1972.0404312 3451.39001454 1973.08787183 3451.38981432 C1995.41418372 3451.38558039 2017.74048829 3451.38804291 2040.06679971 3451.39374879 C2061.35397965 3451.39904628 2082.64114905 3451.39716962 2103.92832766 3451.38772062 C2116.39894233 3451.38239589 2128.86952806 3451.38247279 2141.34014132 3451.39068381 C2149.63741553 3451.39559537 2157.93466734 3451.39317005 2166.23193886 3451.38495011 C2170.92556537 3451.38049996 2175.61913454 3451.37899019 2180.31275833 3451.38658314 C2250.29350033 3451.49159048 2316.44270057 3440.62855255 2380.80012226 3412.12740866 C2381.59708515 3411.77855612 2382.39404805 3411.42970358 2383.21516133 3411.07027975 C2416.02818124 3396.62756822 2446.55354003 3376.39868502 2474.06916523 3353.55416647 C2475.59215065 3352.29883124 2477.13418141 3351.06667777 2478.67902851 3349.83834616 C2495.25060122 3336.65023911 2511.16876202 3321.34662095 2524.80012226 3305.12740866 C2525.64188008 3304.17479147 2526.48363789 3303.22217428 2527.35090351 3302.24068991 C2548.97002238 3277.70205355 2567.49415374 3249.997324 2582.80012226 3221.12740866 C2583.30736836 3220.17334128 2583.81461445 3219.21927389 2584.33723164 3218.23629538 C2605.12125131 3178.78222001 2618.97174409 3136.08785212 2626.55012226 3092.18990866 C2626.73687519 3091.12224264 2626.92362812 3090.05457663 2627.11604023 3088.9545571 C2631.34287928 3062.86436459 2632.24545343 3037.03137469 2632.18234824 3010.67171627 C2632.1741732 3005.82500674 2632.18374044 3000.97832268 2632.19085878 2996.13161588 C2632.20096771 2987.63307331 2632.20009449 2979.13458863 2632.19180815 2970.6360449 C2632.17945955 2957.91340181 2632.18458692 2945.1908051 2632.19295608 2932.46816088 C2632.20671839 2910.77802095 2632.20634497 2889.08790186 2632.19811344 2867.39776007 C2632.18982141 2845.42956206 2632.18810361 2823.46137785 2632.19432545 2801.493179 C2632.19451899 2800.79896269 2632.19471253 2800.10474638 2632.19491194 2799.38949321 C2632.19668669 2793.02692529 2632.19852842 2786.66435739 2632.20045057 2780.30178952 C2632.20526175 2764.35037665 2632.20903032 2748.39896363 2632.21209169 2732.44755033 C2632.21223239 2731.71677596 2632.2123731 2730.98600159 2632.21251806 2730.23308255 C2632.21934677 2694.25069886 2632.21474925 2658.26831765 2632.20900822 2622.28593413 C2632.20875731 2620.71061672 2632.20850641 2619.13529932 2632.20825553 2617.55998191 C2632.20813117 2616.77924339 2632.2080068 2615.99850487 2632.20787866 2615.19410761 C2632.206239 2604.89749848 2632.20462917 2594.60088935 2632.20309878 2584.3042802 C2632.20298129 2583.51715807 2632.20286381 2582.73003593 2632.20274277 2581.91906162 C2632.19733445 2545.41167855 2632.1986261 2508.90429671 2632.20139015 2472.39691346 C2632.20168954 2468.41191894 2632.20197603 2464.42692443 2632.20226397 2460.44192991 C2632.20313578 2448.43010546 2632.2040266 2436.41828101 2632.20495677 2424.40645656 C2632.2077901 2387.77915381 2632.20959101 2351.15185105 2632.21050167 2314.52454821 C2632.21052228 2313.70907446 2632.21054288 2312.89360071 2632.21056411 2312.05341564 C2632.21187996 2259.25630489 2632.20857991 2206.45919553 2632.20195294 2153.66208521 C2632.2017949 2152.398156 2632.2017949 2152.398156 2632.20163368 2151.10869287 C2632.19810482 2122.88670604 2632.19433653 2094.66471923 2632.19054379 2066.44273243 C2632.17908317 1981.10572504 2632.17280145 1895.7687226 2632.19088978 1743.36777904 C2632.19467953 1715.15407793 2632.19842516 1686.94037681 2632.20195294 1658.72667567 C2632.20205867 1657.88432692 2632.20216441 1657.04197818 2632.20227334 1656.17410372 C2632.20889138 1603.40508971 2632.21183502 1550.63607666 2632.21050167 1497.86706225 C2632.21048141 1497.05185534 2632.21046114 1496.23664842 2632.21044025 1495.39673827 C2632.20952 1458.7890051 2632.20760491 1422.18127204 2632.20477017 1385.57353897 C2632.20384156 1373.56678124 2632.20295855 1361.56002351 2632.20209102 1349.55326578 C2632.20180304 1345.57047433 2632.20151098 1341.58768289 2632.20120944 1337.60489144 C2632.19845395 1301.09821455 2632.19764965 1264.59153931 2632.20309878 1228.08486263 C2632.20321569 1227.29828057 2632.20333261 1226.51169851 2632.20345307 1225.70128063 C2632.20498833 1215.41114702 2632.20661628 1205.12101342 2632.20825553 1194.83087983 C2632.20837977 1194.05080238 2632.20850401 1193.27072493 2632.20863202 1192.46700877 C2632.2088827 1190.89321253 2632.2091336 1189.31941629 2632.20938471 1187.74562005 C2632.21510334 1151.81194246 2632.21900995 1115.87826781 2632.21209169 1079.94459013 C2632.21195162 1079.21473575 2632.21181156 1078.48488137 2632.21166725 1077.73291019 C2632.20857606 1061.80597754 2632.20461695 1045.87904523 2632.19980584 1029.95211302 C2632.19789831 1023.59908849 2632.19609646 1017.24606394 2632.19432545 1010.89303938 C2632.1941292 1010.2000577 2632.19393295 1009.50707603 2632.19373076 1008.79309491 C2632.1875672 986.85581153 2632.19054939 964.91854242 2632.19887576 942.98126011 C2632.20726752 920.76091598 2632.2052039 898.54059716 2632.1905902 876.32025585 C2632.18260233 863.69379088 2632.18271982 851.06739023 2632.195035 838.44092837 C2632.20240118 830.04044754 2632.19876616 821.64001648 2632.18643443 813.23954162 C2632.17975782 808.48719786 2632.17749777 803.73498153 2632.18888399 798.98264378 C2632.38648713 710.13897644 2608.96322554 622.59237746 2557.80012226 549.12740866 C2557.4270998 548.5898696 2557.05407734 548.05233053 2556.66975117 547.49850241 C2544.55834843 530.10167361 2531.15513519 513.72029713 2516.80012226 498.12740866 C2516.2321291 497.50898092 2515.66413594 496.89055319 2515.07893086 496.25338522 C2513.13723438 494.14382595 2511.18840506 492.0410663 2509.23762226 489.93990866 C2508.62435078 489.27434958 2508.0110793 488.6087905 2507.37922383 487.92306296 C2503.67426783 483.95410171 2499.82193523 480.30154297 2495.69978047 476.76876608 C2493.46871739 474.84106565 2491.32890027 472.83164283 2489.18781758 470.80538717 C2482.66229307 464.64531732 2475.83517698 459.02582717 2468.70393086 453.58541647 C2466.68077574 452.03600863 2464.67161183 450.46956957 2462.66340351 448.90084616 C2391.69887271 393.68187483 2300.63044553 360.86192812 2210.47758729 360.99975816 C2208.86411585 360.99851268 2207.2506447 360.99683031 2205.63717412 360.9947558 C2201.21496499 360.99032852 2196.79277694 360.99207541 2192.37056727 360.99485758 C2187.53721183 360.99678691 2182.70386036 360.99289341 2177.87050602 360.98976079 C2169.37060213 360.98505366 2160.87070406 360.98406084 2152.37079907 360.98548914 C2139.64585619 360.98761165 2126.92091932 360.98399497 2114.19597736 360.97927436 C2092.50815555 360.97140271 2070.82033521 360.96830444 2049.1325121 360.96782843 C2027.15114671 360.9673337 2005.16978317 360.96468623 1983.18841839 360.95942084 C1981.78644676 360.95908729 1980.38447513 360.95875383 1978.98250351 360.95842043 C1973.32963244 360.95707229 1967.67676139 360.95570899 1962.02389033 360.95432833 C1899.86229596 360.93916738 1837.70070204 360.93238634 1775.53910611 360.92790636 C1774.75297418 360.92784967 1773.96684224 360.92779298 1773.15688813 360.92773457 C1769.18039894 360.92744805 1765.20390976 360.92716302 1761.22742058 360.92688046 C1727.89949672 360.92450451 1694.57157306 360.92079466 1661.24364935 360.91684336 C1645.27860822 360.91495074 1629.31356708 360.91312223 1613.34852594 360.91130916 C1612.55449028 360.91121897 1611.76045462 360.91112878 1610.94235728 360.91103586 C1572.7270427 360.90669971 1534.51172809 360.90277136 1496.29641342 360.89930884 C1495.48122985 360.89923496 1494.66604628 360.89916109 1493.82616017 360.89908498 C1441.87905721 360.89439038 1389.93195431 360.89156713 1337.98485117 360.88992206 C1333.72624611 360.88978648 1329.46764104 360.88964745 1325.20903598 360.88950852 C1318.38153669 360.88928604 1311.5540374 360.88906467 1304.72653812 360.88884464 C1303.45748271 360.88880373 1303.45748271 360.88880373 1302.16278983 360.888762 C1300.45288581 360.88870688 1298.74298178 360.88865177 1297.03307776 360.88859667 C1285.03873394 360.88821005 1273.04439012 360.88782211 1261.0500463 360.88742754 C1256.75824401 360.88728643 1252.46644173 360.88714635 1248.17463944 360.88700864 C1167.12778186 360.88440479 1086.0809262 360.87907706 1005.03407002 360.86312643 C1003.75450369 360.86287474 1003.75450369 360.86287474 1002.44908753 360.86261797 C975.79632367 360.85736729 949.14355987 360.85179293 922.49079609 360.84615866 C895.14255781 360.84037753 867.79431952 360.8346469 840.44608116 360.82920233 C839.18292448 360.82895062 839.18292448 360.82895062 837.89424947 360.82869382 C785.13927127 360.8181977 732.38429359 360.81133821 679.62931443 360.80833594 C678.81428695 360.80828912 677.99925948 360.80824231 677.15953421 360.80819408 C641.36215591 360.80614324 605.56477763 360.80489931 569.76739928 360.80454803 C555.36514191 360.80440476 540.96288453 360.80416611 526.56062716 360.80388397 C524.17272126 360.80383844 521.78481536 360.80379679 519.39690946 360.80375586 C482.89147954 360.80311011 446.38605181 360.80015936 409.8806231 360.79029528 C409.09397039 360.79008291 408.30731768 360.78987054 407.49682701 360.78965173 C394.84343602 360.78622317 382.19004508 360.78261013 369.53665415 360.77897533 C333.5960783 360.76865608 297.65550515 360.75988248 261.71492756 360.76181999 C260.98490368 360.76185873 260.25487981 360.76189747 259.502734 360.76193738 C243.5718064 360.76281417 227.640879 360.76452666 211.70995157 360.76705701 C205.35518246 360.76805369 199.00041333 360.76894037 192.64564419 360.76979223 C191.95246788 360.76988812 191.25929157 360.76998401 190.54510992 360.7700828 C168.60138156 360.77306613 146.65766885 360.76685774 124.71394369 360.75527337 C102.48655316 360.74357895 80.25918636 360.7423194 58.03179522 360.75358905 C45.40097415 360.75967343 32.77021896 360.75762292 20.13940413 360.74333708 C11.73589109 360.73465916 3.33242621 360.73699473 -5.0710839 360.74803579 C-9.82519746 360.75398101 -14.5791825 360.7555008 -19.3332872 360.74335093 C-122.83760818 360.49661242 -222.06507267 393.43576756 -344.03972149 499.12350241 Z " fill="#FFFFFF" transform="translate(819.1998777361587,0.8725913409143686)"/>
<path d="M0 0 C1.24434293 -0.00175304 2.48868586 -0.00350607 3.77073616 -0.00531223 C7.20479616 -0.00914515 10.63880218 -0.00855235 14.07285983 -0.00603446 C17.81654809 -0.00439279 21.56023082 -0.00854934 25.30391729 -0.01194364 C31.85888309 -0.01708523 38.41384151 -0.018517 44.96880913 -0.01748753 C54.71670108 -0.01596035 64.46458489 -0.02012933 74.21247526 -0.02536215 C92.6370915 -0.03502663 111.06170496 -0.03784606 129.48632343 -0.03841921 C143.71643374 -0.03887898 157.94654296 -0.04093853 172.17665291 -0.04411983 C176.27473843 -0.0450174 180.37282395 -0.04590721 184.47090948 -0.04679471 C185.48974459 -0.04701576 186.50857971 -0.04723681 187.55828862 -0.04746456 C216.21139011 -0.05361767 244.86449121 -0.05756523 273.51759338 -0.05712128 C274.59760097 -0.0571057 275.67760856 -0.05709012 276.79034365 -0.05707407 C282.26410447 -0.05699096 287.7378653 -0.05689192 293.21162613 -0.05678936 C294.29870833 -0.05676942 295.38579054 -0.05674947 296.50581463 -0.05672892 C298.70415933 -0.05668848 300.90250402 -0.05664669 303.10084872 -0.05660353 C337.30020983 -0.05599083 371.49956102 -0.06349673 405.6989193 -0.07717609 C444.13398672 -0.09254341 482.56904763 -0.10114193 521.00411832 -0.10021287 C525.10408998 -0.10013824 529.20406163 -0.10008954 533.30403328 -0.10005856 C534.81827508 -0.10004107 534.81827508 -0.10004107 536.36310762 -0.10002324 C552.59378342 -0.09999249 568.82445059 -0.10637267 585.05512383 -0.11499082 C601.3731568 -0.12347603 617.69117718 -0.12445044 634.00921114 -0.1178815 C643.69692788 -0.11419168 653.38460633 -0.11600121 663.072319 -0.12582384 C669.55242851 -0.13183769 676.03251038 -0.13051279 682.51261864 -0.12335334 C686.19880772 -0.11948369 689.88492286 -0.11866169 693.57110663 -0.12681069 C740.46719152 -0.22348965 780.94575569 9.34552885 815.14179039 43.12863445 C815.71115318 43.67970867 816.28051598 44.23078289 816.86713219 44.79855633 C842.67157422 70.0505236 856.19651879 106.19915006 856.64269507 141.92431802 C856.67343801 146.55688179 856.66980254 151.18858054 856.65036687 155.82111841 C856.63934194 159.53472457 856.65193303 163.2482716 856.66129899 166.96187213 C856.67456248 173.47662469 856.67315916 179.99124273 856.66192038 186.5059972 C856.64517905 196.25875517 856.65176909 206.01140542 856.6627531 215.76416668 C856.68081657 232.39009975 856.68009751 249.01598396 856.6690712 265.64192104 C856.65798498 282.48273688 856.65567832 299.32352032 856.6640358 316.16433811 C856.66455955 317.22930859 856.66508329 318.29427906 856.66562291 319.39152137 C856.66833605 324.82217776 856.67119564 330.25283407 856.67411028 335.68349035 C856.69492085 374.96275299 856.69674124 414.24199775 856.68877602 453.52126408 C856.68096938 492.425619 856.68232556 531.32995746 856.69560432 570.2343111 C856.696014 571.44330551 856.69642367 572.65229992 856.69684575 573.89793053 C856.70101909 586.17333121 856.70538741 598.44873181 856.70988502 610.72413238 C856.71948686 636.94290371 856.72778544 663.16167543 856.73550034 689.38044739 C856.73586959 690.63048554 856.73623885 691.88052369 856.7366193 693.16844178 C856.75410179 752.64737563 856.75852642 812.12630906 856.76078128 871.60524517 C856.76093105 875.55125264 856.76108461 879.49726012 856.76123944 883.44326759 C856.76144608 888.71023833 856.76165193 893.97720907 856.76185687 899.2441798 C856.76231966 911.11775124 856.76278776 922.99132267 856.76327218 934.8648941 C856.76337971 937.50714627 856.76348624 940.14939843 856.76359178 942.7916506 C856.7660305 1003.57826559 856.77329717 1064.36487955 856.78277723 1125.15149383 C856.78339179 1129.09708792 856.78400109 1133.04268201 856.7846096 1136.9882761 C856.79380496 1196.4212519 856.80540739 1255.85422662 856.82166672 1315.28720093 C856.82235407 1317.80949899 856.8230414 1320.33179705 856.82372871 1322.85409512 C856.82986176 1345.31520356 856.83609733 1367.77631197 856.8428456 1390.23742024 C856.8472677 1404.96641515 856.85155061 1419.69541009 856.85560799 1434.4244051 C856.85594088 1435.63173162 856.85627378 1436.83905814 856.85661677 1438.08297031 C856.86756748 1478.179408 856.86953513 1518.27584101 856.86692849 1558.37227993 C856.86525992 1584.11158858 856.86449851 1609.85089555 856.86957526 1635.59020388 C856.86990578 1637.26656325 856.86990578 1637.26656325 856.87024298 1638.97678846 C856.87247856 1650.06886698 856.87506577 1661.16094537 856.87811584 1672.2530237 C856.87959719 1677.66439377 856.88099804 1683.07576387 856.88234711 1688.48713398 C856.88261331 1689.54790364 856.88287951 1690.60867329 856.88315378 1691.70158748 C856.88717235 1708.49833316 856.8844178 1725.29507073 856.87880908 1742.09181567 C856.87342338 1758.60756319 856.87508803 1775.12329742 856.88424298 1791.63904342 C856.88938954 1801.32116036 856.88904439 1811.00323951 856.88055516 1820.68535431 C856.87545681 1827.11960803 856.87762567 1833.5538331 856.88564008 1839.98808378 C856.88997602 1843.63278818 856.89128463 1847.27741822 856.88358963 1850.92211877 C856.80348236 1891.72972538 863.16432569 1929.06845901 890.14179039 1961.12863445 C890.8701107 1961.99746258 891.59843102 1962.8662907 892.34882164 1963.76144695 C916.756134 1991.81886188 951.07501037 2008.95468926 988.14179039 2012.12863445 C991.4829187 2012.26241258 994.81934341 2012.27233123 998.16286278 2012.26907635 C999.61718406 2012.27353303 999.61718406 2012.27353303 1001.10088557 2012.27807975 C1004.32912904 2012.28670712 1007.55733516 2012.28826994 1010.78558922 2012.28976727 C1013.10911703 2012.2943998 1015.43264409 2012.29942505 1017.75617027 2012.30481243 C1024.05636577 2012.31789971 1030.35655063 2012.32437465 1036.65675759 2012.32882309 C1040.60064475 2012.33176081 1044.54452905 2012.33586701 1048.48841476 2012.34032726 C1059.43558208 2012.3524309 1070.38274689 2012.36281373 1081.32992077 2012.36620235 C1082.37903841 2012.3665317 1082.37903841 2012.3665317 1083.44935034 2012.36686771 C1084.15032082 2012.36708598 1084.8512913 2012.36730426 1085.57350332 2012.36752915 C1086.99364523 2012.3679726 1088.41378715 2012.36841916 1089.83392906 2012.36886883 C1090.53835027 2012.36909026 1091.24277148 2012.36931169 1091.96853878 2012.36953983 C1103.3582044 2012.37347978 1114.74780573 2012.39091153 1126.13744656 2012.41422835 C1137.8673593 2012.43804521 1149.59723995 2012.45040895 1161.32717723 2012.45157027 C1167.89830628 2012.45261355 1174.46934463 2012.45841859 1181.04045105 2012.47638988 C1187.23179251 2012.4929934 1193.42297627 2012.49496703 1199.6143322 2012.48625088 C1201.87158636 2012.48548693 1204.12884943 2012.48973704 1206.3860817 2012.49970913 C1223.53254788 2012.5709425 1240.73461223 2011.74085429 1257.20429039 2006.50363445 C1258.0153524 2006.25130047 1258.82641441 2005.99896648 1259.66205406 2005.73898602 C1295.92932717 1993.95010721 1325.71264301 1967.90231502 1343.14179039 1934.12863445 C1354.01057603 1911.65350185 1358.31790769 1888.32455879 1358.26894891 1863.45714939 C1358.27054873 1862.23088397 1358.27214855 1861.00461856 1358.27379686 1859.74119359 C1358.27721705 1856.35212853 1358.2762035 1852.96311857 1358.27328331 1849.57405665 C1358.27120654 1845.86771215 1358.27496672 1842.16137261 1358.27796483 1838.45502937 C1358.2824393 1831.93907582 1358.28322031 1825.42312993 1358.28159206 1818.90717517 C1358.27917862 1809.15244828 1358.2825715 1799.39772925 1358.28710898 1789.64300342 C1358.29468255 1773.01719295 1358.2975948 1756.39138461 1358.29799652 1739.76557255 C1358.29843042 1722.91614773 1358.30106957 1706.06672537 1358.30641937 1689.21730137 C1358.30675656 1688.15319906 1358.30709376 1687.08909676 1358.30744117 1685.99274893 C1358.3091738 1680.56686091 1358.31094859 1675.1409729 1358.31274332 1669.7150849 C1358.3164107 1658.59077015 1358.31978577 1647.46645531 1358.32306314 1636.34214044 C1358.32355878 1634.6615833 1358.32355878 1634.6615833 1358.32406444 1632.94707551 C1358.33125189 1608.33286107 1358.33558164 1583.71864628 1358.33978147 1559.10443118 C1358.34957438 1501.81920196 1358.36811211 1444.53397835 1358.38991343 1387.24875255 C1358.39846418 1364.76651467 1358.40673508 1342.28427667 1358.41503052 1319.80203869 C1358.4164287 1316.01458517 1358.41782952 1312.22713164 1358.41923067 1308.43967811 C1358.44075452 1250.21305989 1358.46019515 1191.98644105 1358.47844352 1133.75982172 C1358.47968132 1129.81222022 1358.48092289 1125.86461873 1358.48216489 1121.91701723 C1358.50126994 1061.11400139 1358.51822742 1000.31098557 1358.5305233 939.50796795 C1358.53078829 938.20010222 1358.53105329 936.8922365 1358.53132631 935.54473848 C1358.5342632 921.03583898 1358.53715596 906.52693947 1358.54003091 892.01803996 C1358.5402892 890.71460872 1358.54054748 889.41117748 1358.5408136 888.06824832 C1358.54211632 881.4911895 1358.54341632 874.91413067 1358.54471315 868.33707184 C1358.55645373 808.91154292 1358.57029182 749.48601627 1358.59356689 690.06049061 C1358.5940551 688.81152358 1358.59454331 687.56255656 1358.59504632 686.27574205 C1358.60530456 660.08983866 1358.6161828 633.90393557 1358.62787353 607.71803278 C1358.63334539 595.45573141 1358.63867256 583.19342998 1358.64391518 570.9311285 C1358.64443377 569.72383653 1358.64495236 568.51654457 1358.64548666 567.27266799 C1358.66212059 528.37667504 1358.668795 489.48068811 1358.67009 450.58469185 C1358.67142249 411.41209183 1358.68183051 372.23950607 1358.70503551 333.06691255 C1358.70823836 327.65406639 1358.71133213 322.24122017 1358.71435928 316.82837391 C1358.71495634 315.76730906 1358.7155534 314.70624421 1358.71616856 313.61302589 C1358.72534315 296.81144311 1358.72443758 280.00987655 1358.7193186 263.20829268 C1358.71448984 246.68750259 1358.72030536 230.16674475 1358.73743867 213.64596253 C1358.74716017 203.96068608 1358.74869517 194.27549224 1358.73807643 184.59021625 C1358.73183789 178.15377993 1358.73649912 171.71741038 1358.74993005 165.28098521 C1358.75723481 161.63499333 1358.76000819 157.98916711 1358.74929839 154.34317984 C1358.6313211 110.90717956 1370.64381834 73.7649445 1401.14179039 42.12863445 C1401.73347008 41.48539227 1402.32514977 40.84215008 1402.93475914 40.1794157 C1426.49248079 15.22568091 1462.4669531 1.95705862 1496.14179039 0.12863445 C1503.50563839 -0.06226738 1510.87421798 -0.01861046 1518.23993492 -0.01662922 C1520.46862913 -0.01962541 1522.69732283 -0.02302899 1524.92601585 -0.02680683 C1530.95318391 -0.03560484 1536.98033775 -0.03798319 1543.00751162 -0.03862262 C1546.78137705 -0.03933558 1550.55523892 -0.04147456 1554.32910347 -0.04411983 C1566.83931962 -0.05288392 1579.34952777 -0.05754127 1591.85974635 -0.05678936 C1592.53225448 -0.0567494 1593.2047626 -0.05670945 1593.89764977 -0.05666828 C1594.57099294 -0.0566274 1595.24433612 -0.05658652 1595.93808363 -0.0565444 C1606.83743883 -0.05613841 1617.73675941 -0.06569953 1628.6361046 -0.07980665 C1639.86663637 -0.09422602 1651.09715186 -0.10089132 1662.32769477 -0.10021287 C1668.61700104 -0.09995906 1674.9062681 -0.10274526 1681.19556618 -0.11339092 C1687.1168826 -0.12314089 1693.03812288 -0.12310423 1698.95944214 -0.11587429 C1701.11916974 -0.11483693 1703.27890227 -0.11714019 1705.43862152 -0.12323475 C1721.64882812 -0.16597606 1737.75679236 0.36242578 1753.57929039 4.25363445 C1754.44562096 4.46463787 1755.31195152 4.67564129 1756.20453453 4.89303875 C1779.70683421 10.95064066 1800.61333017 23.49636618 1818.14179039 40.12863445 C1818.61761559 40.57191082 1819.09344078 41.01518719 1819.58368492 41.47189617 C1838.98110707 59.61868674 1852.40062345 83.49948963 1859.01679039 109.19113445 C1859.30332481 110.28482342 1859.30332481 110.28482342 1859.59564781 111.40060711 C1863.80716695 129.10617737 1863.43267803 147.29305259 1863.39660771 165.36622818 C1863.39118795 169.2138886 1863.39752551 173.06153418 1863.4022814 176.90919304 C1863.40903975 183.66495806 1863.40842488 190.42069076 1863.40291432 197.17645645 C1863.39470217 207.29009052 1863.3980915 217.40369854 1863.4036796 227.51733322 C1863.41286686 244.75700273 1863.41258579 261.99666042 1863.40711784 279.23633099 C1863.40161184 296.70245891 1863.40045746 314.16857906 1863.40459251 331.63470745 C1863.40485086 332.73862806 1863.4051092 333.84254868 1863.40537538 334.97992143 C1863.40644194 339.4761511 1863.40753936 343.97238077 1863.40867593 348.46861042 C1863.41925063 390.33127942 1863.41997375 432.19394321 1863.41438103 474.05661297 C1863.41421544 475.29668692 1863.41404985 476.53676088 1863.41387924 477.81441283 C1863.41371338 479.05647278 1863.41354752 480.29853273 1863.41337663 481.57823086 C1863.40833069 519.4152638 1863.40702729 557.2522946 1863.40942192 595.08932781 C1863.40957688 597.62287408 1863.40973119 600.15642035 1863.40988486 602.68996662 C1863.41050579 612.87118915 1863.41114313 623.05241168 1863.41180439 633.2336342 C1863.41363842 661.69452457 1863.41477961 690.15541494 1863.41537666 718.61630535 C1863.41540395 719.91235657 1863.41543125 721.20840778 1863.41545936 722.54373328 C1863.41627794 763.8427453 1863.41402588 805.14175651 1863.40967751 846.44076824 C1863.40960727 847.11043415 1863.40953703 847.78010007 1863.40946467 848.47005889 C1863.40711203 870.8999886 1863.40459986 893.32991829 1863.40207141 915.75984798 C1863.3944307 983.58654833 1863.3902433 1051.41324591 1863.40230207 1172.54362916 C1863.40482852 1194.96791965 1863.40732558 1217.39221015 1863.40967751 1239.81650066 C1863.40974799 1240.48597866 1863.40981848 1241.15545666 1863.40989111 1241.84522188 C1863.41430234 1283.77713585 1863.41625964 1325.7090493 1863.41537666 1367.64096355 C1863.41533591 1369.58361355 1863.41533591 1369.58361355 1863.41529433 1371.565509 C1863.41466938 1399.99475694 1863.41340212 1428.42400483 1863.41155566 1456.85325271 C1863.41089737 1467.0253839 1863.41027121 1477.1975151 1863.40965424 1487.36964629 C1863.40949946 1489.90021729 1863.409342 1492.43078829 1863.40918184 1494.96135928 C1863.40679444 1532.78852579 1863.40882796 1570.61568987 1863.41387924 1608.44285607 C1863.41412762 1610.30296701 1863.41412762 1610.30296701 1863.41438103 1612.20065594 C1863.41454639 1613.43844319 1863.41471176 1614.67623044 1863.41488213 1615.9515264 C1863.42039771 1657.69318962 1863.41837111 1699.43484658 1863.40781954 1741.1765089 C1863.40671483 1745.65852641 1863.40564142 1750.14054393 1863.40459251 1754.62256145 C1863.4043321 1755.72252778 1863.40407169 1756.82249411 1863.40380338 1757.95579275 C1863.39985812 1775.37512502 1863.40260559 1792.79444951 1863.40813053 1810.21378107 C1863.41342024 1827.34069969 1863.41156551 1844.46760519 1863.40210235 1861.59452215 C1863.3967659 1871.63574293 1863.39687509 1881.67692776 1863.40506554 1891.71814682 C1863.40995973 1898.39022883 1863.40757886 1905.0622829 1863.39933184 1911.73436154 C1863.39486113 1915.51433739 1863.39342083 1919.29424175 1863.40096487 1923.07421434 C1863.46968733 1960.0730387 1863.46968733 1960.0730387 1859.01679039 1977.06613445 C1858.69919762 1978.29735027 1858.69919762 1978.29735027 1858.37518883 1979.55343914 C1850.1973209 2009.65397413 1832.13027458 2037.37015591 1807.14179039 2056.12863445 C1806.18014977 2056.8556657 1805.21850914 2057.58269695 1804.22772789 2058.33175945 C1778.81764297 2076.72994752 1749.34856848 2086.30439137 1717.99373436 2086.26666546 C1717.02262685 2086.26948674 1716.05151934 2086.27230802 1715.05098432 2086.27521479 C1711.8235136 2086.28349309 1708.59607747 2086.28489321 1705.36859703 2086.2863493 C1703.04329903 2086.29102262 1700.71800193 2086.29616704 1698.39270592 2086.30174541 C1693.3962729 2086.3129932 1688.39984574 2086.32144344 1683.40340424 2086.32786465 C1675.48760048 2086.33858825 1667.57183604 2086.35882801 1659.65605736 2086.38098431 C1656.94019617 2086.38846267 1654.22433481 2086.39587667 1651.5084734 2086.40327168 C1650.82984992 2086.40512224 1650.15122643 2086.40697281 1649.4520386 2086.40887945 C1641.74112327 2086.42977206 1634.03020342 2086.448615 1626.31928062 2086.46652508 C1625.2631036 2086.46898235 1625.2631036 2086.46898235 1624.18558966 2086.47148927 C1612.79534861 2086.49773019 1601.40510434 2086.51640102 1590.01484592 2086.53311698 C1578.28374128 2086.55060926 1566.55269925 2086.57952959 1554.82164472 2086.61800635 C1548.2500234 2086.63898398 1541.67849097 2086.65452047 1535.10683441 2086.65681362 C1528.91709158 2086.65897617 1522.72753383 2086.67500791 1516.53784752 2086.70120335 C1514.28018721 2086.70833686 1512.02250433 2086.71052662 1509.76483536 2086.70710087 C1492.06644451 2086.68455681 1474.97878496 2087.81679488 1458.14179039 2093.69113445 C1457.1390609 2094.03483074 1456.13633141 2094.37852703 1455.10321617 2094.73263836 C1434.4807528 2102.06906744 1416.61580682 2113.74449102 1401.14179039 2129.12863445 C1400.67144371 2129.59495281 1400.20109703 2130.06127117 1399.71649742 2130.54172039 C1377.42406306 2152.96496986 1361.10257159 2187.0601384 1360.99703026 2219.01048565 C1360.99350341 2219.66656321 1360.98997657 2220.32264077 1360.98634285 2220.99859947 C1360.97574288 2223.17810095 1360.97198995 2225.35755859 1360.96820641 2227.53708172 C1360.96189362 2229.10831158 1360.95512702 2230.67953968 1360.94794273 2232.2507658 C1360.93331172 2235.62825492 1360.92157045 2239.00573733 1360.91199493 2242.38324451 C1360.89645675 2247.74566716 1360.87250165 2253.10803228 1360.8470974 2258.47041607 C1360.77614201 2273.71769837 1360.71644423 2288.96501459 1360.66498375 2304.21237469 C1360.63647017 2312.63862446 1360.60097117 2321.06481787 1360.55833 2329.49100822 C1360.53617184 2333.93720538 1360.51756162 2338.38335138 1360.50788116 2342.82959461 C1360.40503774 2388.18834542 1356.64173492 2430.11155918 1326.14179039 2466.12863445 C1325.68965172 2466.66585125 1325.23751305 2467.20306805 1324.7716732 2467.75656414 C1305.87273535 2489.9171141 1280.45116304 2505.42063986 1252.39179039 2513.00363445 C1251.33133507 2513.29053143 1251.33133507 2513.29053143 1250.24945641 2513.5832243 C1233.80368039 2517.68674824 1217.2693164 2517.42020036 1200.43705461 2517.39177092 C1196.63296444 2517.3875701 1192.8288931 2517.39501972 1189.02480763 2517.40092343 C1182.36838519 2517.40965796 1175.71199353 2517.41100735 1169.05556679 2517.40742016 C1159.15675428 2517.40209978 1149.25797142 2517.40822188 1139.35916214 2517.41650309 C1120.64866102 2517.4317263 1101.93817345 2517.43344987 1083.22766743 2517.43098006 C1068.77643966 2517.42914582 1054.32521632 2517.43090976 1039.87398911 2517.43520451 C1037.79614875 2517.43580691 1035.71830839 2517.43640811 1033.64046803 2517.43700811 C1030.50916682 2517.43791539 1027.37786561 2517.43882405 1024.24656441 2517.43974046 C995.14084288 2517.44816756 966.03512302 2517.45250738 936.92940044 2517.44833374 C935.83264702 2517.44817736 934.73589359 2517.44802099 933.60590522 2517.44785987 C928.0474142 2517.44705412 922.48892319 2517.44620835 916.93043218 2517.44534657 C915.82654411 2517.44517548 914.72265604 2517.4450044 913.58531682 2517.44482812 C911.35298792 2517.44448147 909.12065902 2517.44413294 906.88833012 2517.44378254 C872.15810956 2517.43842608 837.42791441 2517.4463546 802.69769859 2517.46481609 C763.65647039 2517.48554499 724.61525792 2517.49625708 685.5740239 2517.49224061 C681.4089061 2517.49184528 677.2437883 2517.49148373 673.0786705 2517.49114323 C672.05315251 2517.49105249 671.02763452 2517.49096176 669.97104022 2517.49086828 C654.50857992 2517.48970366 639.04613553 2517.4963403 623.5836792 2517.50695515 C605.99203975 2517.51901952 588.40043529 2517.52055187 570.80879531 2517.50816498 C560.97260811 2517.50154842 551.13650465 2517.50313962 541.3003242 2517.51675349 C534.71879986 2517.52502514 528.13733796 2517.52226535 521.55581866 2517.51077823 C517.81337562 2517.50454859 514.07109543 2517.50285087 510.32866208 2517.51464156 C470.03271316 2517.63282638 434.46658115 2509.94141065 403.14179039 2483.12863445 C401.91202477 2482.08256023 401.91202477 2482.08256023 400.65741539 2481.0153532 C372.08951244 2456.04061817 355.41875162 2421.11484937 352.35502576 2383.44103503 C352.01195052 2378.11170046 352.00412111 2372.7958299 352.01463187 2367.45714939 C352.01303205 2366.23088397 352.01143223 2365.00461856 352.00978393 2363.74119359 C352.00636373 2360.35212853 352.00737728 2356.96311857 352.01029747 2353.57405665 C352.01237424 2349.86771215 352.00861406 2346.16137261 352.00561595 2342.45502937 C352.00114148 2335.93907582 352.00036047 2329.42312993 352.00198872 2322.90717517 C352.00440216 2313.15244828 352.00100928 2303.39772925 351.9964718 2293.64300342 C351.98889823 2277.01719295 351.98598598 2260.39138461 351.98558426 2243.76557255 C351.98515036 2226.91614773 351.98251121 2210.06672537 351.97716141 2193.21730137 C351.97665562 2191.62114791 351.97665562 2191.62114791 351.97613961 2189.99274893 C351.97440698 2184.56686091 351.97263219 2179.1409729 351.97083746 2173.7150849 C351.96717008 2162.59077015 351.96379501 2151.46645531 351.96051764 2140.34214044 C351.96018722 2139.22176901 351.95985679 2138.10139759 351.95951634 2136.94707551 C351.95232889 2112.33286107 351.94799914 2087.71864628 351.94379932 2063.10443118 C351.9340064 2005.81920196 351.91546867 1948.53397835 351.89366735 1891.24875255 C351.8851166 1868.76651467 351.8768457 1846.28427667 351.86855026 1823.80203869 C351.86715208 1820.01458517 351.86575126 1816.22713164 351.86435011 1812.43967811 C351.84282626 1754.21305989 351.82338563 1695.98644105 351.80513726 1637.75982172 C351.80389946 1633.81222022 351.80265789 1629.86461873 351.80141589 1625.91701723 C351.78231084 1565.11400139 351.76535336 1504.31098557 351.75305748 1443.50796795 C351.75265999 1441.54616936 351.75265999 1441.54616936 351.75225447 1439.54473848 C351.74931758 1425.03583898 351.74642482 1410.52693947 351.74354987 1396.01803996 C351.74329158 1394.71460872 351.7430333 1393.41117748 351.74276718 1392.06824832 C351.74146446 1385.4911895 351.74016446 1378.91413067 351.73886763 1372.33707184 C351.72712705 1312.91154292 351.71328896 1253.48601627 351.69001389 1194.06049061 C351.68952568 1192.81152358 351.68903747 1191.56255656 351.68853446 1190.27574205 C351.67827622 1164.08983866 351.66739798 1137.90393557 351.65570725 1111.71803278 C351.65023539 1099.45573141 351.64490822 1087.19342998 351.6396656 1074.9311285 C351.63914701 1073.72383653 351.63862842 1072.51654457 351.63809412 1071.27266799 C351.62146019 1032.37667504 351.61478578 993.48068811 351.61349078 954.58469185 C351.61215829 915.41209183 351.60175027 876.23950607 351.57854527 837.06691255 C351.57534242 831.65406639 351.57224865 826.24122017 351.5692215 820.82837391 C351.56862444 819.76730906 351.56802738 818.70624421 351.56741222 817.61302589 C351.55823763 800.81144311 351.5591432 784.00987655 351.56426218 767.20829268 C351.56909094 750.68750259 351.56327542 734.16674475 351.54614211 717.64596253 C351.53642061 707.96068608 351.53488561 698.27549224 351.54550435 688.59021625 C351.55174289 682.15377993 351.54708166 675.71741038 351.53365073 669.28098521 C351.52634597 665.63499333 351.52357259 661.98916711 351.53428239 658.34317984 C351.65240287 614.86916614 340.30350379 577.46909978 309.39179039 545.94113445 C291.34078617 528.07081354 268.39390815 515.39351948 243.76679039 509.31613445 C242.99053307 509.12116375 242.21427574 508.92619305 241.41449547 508.72531414 C225.03353593 504.97901826 208.25059064 504.83466326 191.54022789 504.86984539 C189.34167936 504.86712784 187.14313174 504.86356265 184.9445858 504.85922527 C179.0313775 504.85018987 173.11823981 504.85360862 167.20503044 504.85998344 C160.98131194 504.86508968 154.757599 504.86033926 148.53388023 504.85721111 C137.42059777 504.85335336 126.30734619 504.85952167 115.19406867 504.86972979 C105.15904874 504.87866277 95.12407511 504.87710995 85.08905602 504.86789227 C73.37875687 504.85717906 61.66848661 504.853231 49.95818329 504.85911679 C43.78017759 504.86221552 37.60220364 504.86270411 31.42420006 504.85604382 C25.61276428 504.85021496 19.80141489 504.85436731 13.98998833 504.86583233 C11.87260391 504.86844956 9.75521207 504.86776495 7.63783073 504.863307 C-38.26456144 504.77566358 -76.34328032 516.85774306 -110.04570961 549.00363445 C-140.73982031 580.79396339 -149.37410052 620.94911329 -149.23937743 663.72244794 C-149.23108055 667.43934206 -149.24047861 671.15620285 -149.2474727 674.87309393 C-149.25736822 681.39520248 -149.25625287 687.91723541 -149.24777764 694.43934489 C-149.23515455 704.20315907 -149.2400327 713.96691268 -149.24822772 723.73072882 C-149.26170489 740.37516366 -149.26111537 757.0195711 -149.25282669 773.66400814 C-149.24449605 790.52459111 -149.24276194 807.38515587 -149.24905396 824.24573994 C-149.24944853 825.31180112 -149.24984311 826.37786231 -149.25024964 827.47622838 C-149.25229511 832.91241118 -149.25445378 838.34859393 -149.25665747 843.78477667 C-149.27192638 881.90144095 -149.27446701 920.01809635 -149.26938267 958.1347629 C-149.26402835 998.29146587 -149.26583276 1038.44815774 -149.27820778 1078.60485935 C-149.27876479 1080.42037189 -149.27876479 1080.42037189 -149.27933305 1082.27256145 C-149.2835011 1095.79682784 -149.28790568 1109.32109416 -149.2924071 1122.84536045 C-149.30072398 1147.8584298 -149.30804636 1172.87149944 -149.31512642 1197.88456917 C-149.31548203 1199.13602658 -149.31583764 1200.387484 -149.31620403 1201.67686436 C-149.33307614 1261.22611155 -149.3408849 1320.77535913 -149.34659962 1380.32460831 C-149.34697924 1384.27537532 -149.34736339 1388.22614232 -149.34774856 1392.17690933 C-149.35173525 1433.173296 -149.35517757 1474.16968271 -149.35853516 1515.16606943 C-149.36178526 1554.8314903 -149.3651891 1594.49691115 -149.36905594 1634.16233196 C-149.36943998 1638.11222414 -149.36981949 1642.06211632 -149.37019853 1646.0120085 C-149.37593965 1705.5111713 -149.3843854 1765.0103321 -149.4012928 1824.50949287 C-149.40164677 1825.76001721 -149.40200074 1827.01054155 -149.40236544 1828.29896056 C-149.40945011 1853.2835181 -149.41692936 1878.2680755 -149.42524549 1903.25263266 C-149.42973972 1916.76383016 -149.43406599 1930.27502771 -149.43821144 1943.78622532 C-149.43858395 1944.99497528 -149.43895646 1946.20372523 -149.43934026 1947.44910397 C-149.45160223 1987.59053913 -149.45190852 2027.73196506 -149.44655447 2067.87340138 C-149.44154316 2105.87833141 -149.44568405 2143.88325005 -149.46109229 2181.88817752 C-149.46328284 2187.30642832 -149.46535959 2192.72467916 -149.46736526 2198.14293003 C-149.46776167 2199.20504538 -149.46815808 2200.26716074 -149.4685665 2201.3614614 C-149.47455655 2218.17679448 -149.47043064 2234.99210936 -149.46205823 2251.80744079 C-149.45402558 2268.34314726 -149.45662342 2284.87882364 -149.47050622 2301.41452654 C-149.47831796 2311.10729729 -149.47792686 2320.79998348 -149.4653368 2330.49274967 C-149.45778661 2336.93534354 -149.46115778 2343.37787282 -149.47328857 2349.82045952 C-149.47985452 2353.46911641 -149.48190185 2357.11760647 -149.4704216 2360.76625502 C-149.41613235 2379.27667131 -149.88539638 2397.31795345 -155.48320961 2415.12863445 C-155.86171059 2416.35199505 -155.86171059 2416.35199505 -156.24785805 2417.60007 C-167.82982245 2453.42359546 -193.69272619 2483.83711882 -227.04277992 2501.21115398 C-252.12258079 2513.88596459 -277.03374358 2517.59882005 -304.92852211 2517.51681805 C-307.2847054 2517.52089334 -309.64088677 2517.52624054 -311.99706459 2517.53274822 C-318.34003663 2517.54631377 -324.68286072 2517.541168 -331.02583504 2517.53161097 C-337.01935421 2517.52473654 -343.0128605 2517.53001221 -349.00637937 2517.53439255 C-361.59990127 2517.5429097 -374.19335725 2517.53317043 -386.78686833 2517.51699145 C-397.54961401 2517.50359162 -408.31226256 2517.50592076 -419.07500648 2517.51974773 C-431.629117 2517.53586897 -444.18317 2517.54208607 -456.73728943 2517.53291094 C-463.36243364 2517.52819877 -469.98752403 2517.52753824 -476.61266518 2517.53752041 C-482.84437326 2517.54625577 -489.07589987 2517.54004936 -495.30758858 2517.52283764 C-497.57977689 2517.51890763 -499.85198078 2517.51994612 -502.12416267 2517.52662563 C-519.02610649 2517.57168986 -535.61232034 2516.609641 -551.85820961 2511.50363445 C-552.67378334 2511.25130047 -553.48935707 2510.99896648 -554.32964516 2510.73898602 C-590.15317061 2499.15702161 -620.56669398 2473.29411787 -637.94072914 2439.94406414 C-651.54263884 2413.0298011 -654.33008906 2386.52219327 -654.24043559 2356.64650824 C-654.2322904 2352.79845654 -654.24181761 2348.95043778 -654.24894613 2345.10238957 C-654.25907384 2338.34903717 -654.25816838 2331.59575755 -654.2498955 2324.84240365 C-654.23756686 2314.73239201 -654.24266573 2304.6224389 -654.25104342 2294.51242586 C-654.26481793 2277.27809033 -654.26440584 2260.04378139 -654.25620079 2242.80944347 C-654.24793955 2225.35060112 -654.24621201 2207.89177626 -654.2524128 2190.43293285 C-654.25280031 2189.32915582 -654.25318783 2188.22537878 -654.25358709 2187.08815395 C-654.25518695 2182.59245197 -654.25683308 2178.09675001 -654.25853792 2173.60104807 C-654.27439697 2131.75080416 -654.27548599 2089.90057197 -654.26709557 2048.05032635 C-654.26684718 2046.81081524 -654.26659879 2045.57130413 -654.26634288 2044.29423208 C-654.26609409 2043.05273385 -654.2658453 2041.81123562 -654.26558897 2040.53211623 C-654.25801898 2002.70676396 -654.25606546 1964.88141653 -654.25965691 1927.05606365 C-654.25988934 1924.52294943 -654.26012081 1921.98983521 -654.26035132 1919.45672099 C-654.26128272 1909.27714357 -654.26223872 1899.09756615 -654.26323061 1888.91798874 C-654.26598161 1860.46198942 -654.26769343 1832.00599009 -654.26858902 1803.54999065 C-654.26862996 1802.25418 -654.26867089 1800.95836935 -654.26871307 1799.6232917 C-654.26994087 1758.33414773 -654.26656319 1717.04500557 -654.26004028 1675.75586224 C-654.25993493 1675.08639124 -654.25982957 1674.41692025 -654.25972103 1673.72716225 C-654.2561921 1651.30399445 -654.25242384 1628.88082669 -654.24863113 1606.45765893 C-654.23717015 1538.65219679 -654.23088899 1470.84674088 -654.24897713 1349.75402837 C-654.25276683 1327.33648782 -654.25651243 1304.91894726 -654.26004028 1282.50140667 C-654.26014602 1281.83212331 -654.26025175 1281.16283994 -654.26036069 1280.47327526 C-654.2669779 1238.55127608 -654.26991342 1196.62927807 -654.26858902 1154.70727825 C-654.26854827 1153.41241956 -654.26850751 1152.11756088 -654.26846553 1150.78346405 C-654.26752808 1122.3590609 -654.26562715 1093.93465788 -654.26285751 1065.51025486 C-654.26187009 1055.33978679 -654.26093085 1045.16931871 -654.26000538 1034.99885063 C-654.25977321 1032.46871119 -654.25953702 1029.93857176 -654.25929679 1027.40843232 C-654.25571621 989.59329844 -654.25876495 951.77817002 -654.26634288 913.96303683 C-654.26659127 912.72352572 -654.26683965 911.48401461 -654.26709557 910.20694256 C-654.26734361 908.96971878 -654.26759166 907.732495 -654.26784722 906.45777959 C-654.27612198 864.72809316 -654.27307786 822.99842079 -654.25725333 781.26873636 C-654.25559628 776.78726961 -654.25398616 772.30580284 -654.2524128 767.82433605 C-654.25202218 766.72451061 -654.25163156 765.62468518 -654.2512291 764.4915317 C-654.24531306 747.08007716 -654.24943044 729.66864011 -654.25771981 712.25718715 C-654.26565775 695.13470104 -654.26286616 678.01224442 -654.24867755 660.88976205 C-654.24067795 650.85338475 -654.24082775 640.81708836 -654.25312234 630.78071494 C-654.26047114 624.1093099 -654.25688057 617.43796767 -654.24452178 610.7665702 C-654.23782459 606.98859778 -654.2356341 603.21078609 -654.24697133 599.43282107 C-654.30005137 580.43699852 -654.07506912 561.48755716 -648.29570961 543.19113445 C-647.92325111 541.98553875 -647.92325111 541.98553875 -647.5432682 540.75558758 C-635.38941496 503.34800599 -608.74985985 473.13540245 -573.96856117 455.15158367 C-565.97431638 451.19175946 -557.72825998 448.30779686 -549.17070961 445.81613445 C-548.34039223 445.573549 -547.51007484 445.33096355 -546.65459633 445.08102703 C-532.02932484 441.03339515 -517.8855313 440.83352466 -502.82036781 440.84152508 C-500.50285542 440.83549215 -498.18534521 440.82856571 -495.86783791 440.8208189 C-490.89764011 440.80598972 -485.92748207 440.79719567 -480.95726395 440.79310894 C-473.75180442 440.78693361 -466.54642128 440.7686742 -459.34099438 440.7466684 C-447.62124053 440.71103799 -435.9014824 440.6826902 -424.18169594 440.66037273 C-423.48200273 440.65903774 -422.78230952 440.65770275 -422.06141349 440.65632731 C-417.09784588 440.64690454 -412.1342778 440.6377423 -407.17070961 440.62863445 C-401.5093323 440.61824133 -395.84795526 440.60772134 -390.18657875 440.59689617 C-389.48926647 440.59556543 -388.79195418 440.59423469 -388.07351122 440.59286362 C-376.3999631 440.57034623 -364.72644683 440.54011129 -353.05293149 440.50450373 C-345.24112729 440.48128774 -337.42938192 440.46744744 -329.61754668 440.46100903 C-324.73829977 440.45502972 -319.8591 440.44089839 -314.97987747 440.4246645 C-312.73469092 440.41883691 -310.48949273 440.41630608 -308.24429893 440.41750431 C-264.29574653 440.43425807 -226.40617566 429.84992894 -193.85820961 399.12863445 C-193.18274086 398.50601727 -192.50727211 397.88340008 -191.81133461 397.2419157 C-168.24463527 374.75928454 -152.87406711 339.90020645 -151.72792435 307.43863678 C-151.72536825 306.16802745 -151.72281216 304.89741812 -151.7201786 303.58830547 C-151.71735732 302.87349819 -151.71453604 302.1586909 -151.71162927 301.42222279 C-151.70336096 299.05001601 -151.7019517 296.67785636 -151.70049477 294.30563641 C-151.69582044 292.59470777 -151.69067586 290.88378036 -151.68509865 289.17285442 C-151.67385403 285.49689953 -151.66540203 281.82095257 -151.65897942 278.14498615 C-151.64823967 272.31229095 -151.62797571 266.47965255 -151.60585976 260.64699078 C-151.54414686 244.06334343 -151.49008493 227.47969913 -151.45684242 210.89596844 C-151.43838888 201.72991159 -151.40931647 192.56394993 -151.36883771 183.39796323 C-151.34793868 178.55999225 -151.33233514 173.72214035 -151.33003044 168.88412189 C-151.29877565 118.29937482 -142.74927091 76.51377247 -105.85820961 39.12863445 C-102.32957577 35.93081003 -98.66017903 32.99425958 -94.85820961 30.12863445 C-93.89527992 29.40031414 -92.93235023 28.67199383 -91.94024086 27.9216032 C-64.49812474 8.06171942 -33.60692257 -0.06071217 0 0 Z " fill="#FFFFFF" transform="translate(1301.8582096099854,647.8713655471802)"/>
</svg>
